<?xml version="1.0" encoding="UTF-8" standalone="no"?>
<!-- Created with Inkscape (http://www.inkscape.org/) -->

<svg
   width="65.713684mm"
   height="19.615986mm"
   viewBox="0 0 65.713684 19.615986"
   version="1.1"
   id="svg1"
   xml:space="preserve"
   sodipodi:docname="log.svg"
   inkscape:version="1.3 (0e150ed6c4, 2023-07-21)"
   xmlns:inkscape="http://www.inkscape.org/namespaces/inkscape"
   xmlns:sodipodi="http://sodipodi.sourceforge.net/DTD/sodipodi-0.dtd"
   xmlns:xlink="http://www.w3.org/1999/xlink"
   xmlns="http://www.w3.org/2000/svg"
   xmlns:svg="http://www.w3.org/2000/svg"><sodipodi:namedview
     id="namedview1"
     pagecolor="#ffffff"
     bordercolor="#000000"
     borderopacity="0.25"
     inkscape:showpageshadow="2"
     inkscape:pageopacity="0.0"
     inkscape:pagecheckerboard="0"
     inkscape:deskcolor="#d1d1d1"
     inkscape:document-units="mm"
     inkscape:zoom="1.9578168"
     inkscape:cx="212.48158"
     inkscape:cy="109.56081"
     inkscape:window-width="1920"
     inkscape:window-height="991"
     inkscape:window-x="-9"
     inkscape:window-y="-9"
     inkscape:window-maximized="1"
     inkscape:current-layer="layer1"
     showguides="false" /><defs
     id="defs1"><linearGradient
       id="linearGradient9"
       inkscape:collect="always"><stop
         style="stop-color:#02a2f8;stop-opacity:1;"
         offset="0"
         id="stop9" /><stop
         style="stop-color:#1cff9c;stop-opacity:1;"
         offset="0.08644401"
         id="stop10" /></linearGradient><rect
       x="4.086184"
       y="854.01251"
       width="784.54736"
       height="183.8783"
       id="rect9" /><linearGradient
       id="linearGradient6"
       inkscape:collect="always"><stop
         style="stop-color:#1cff9c;stop-opacity:1;"
         offset="0"
         id="stop6" /><stop
         style="stop-color:#02a2f8;stop-opacity:1;"
         offset="1"
         id="stop7" /></linearGradient><linearGradient
       inkscape:collect="always"
       xlink:href="#linearGradient6"
       id="linearGradient7"
       x1="7.5867792e-05"
       y1="8.739912"
       x2="17.480656"
       y2="8.739912"
       gradientUnits="userSpaceOnUse" /><linearGradient
       inkscape:collect="always"
       xlink:href="#linearGradient6"
       id="linearGradient8"
       gradientUnits="userSpaceOnUse"
       x1="7.5867792e-05"
       y1="8.739912"
       x2="17.480656"
       y2="8.739912" /><linearGradient
       inkscape:collect="always"
       xlink:href="#linearGradient9"
       id="linearGradient10"
       x1="114.90625"
       y1="889.13525"
       x2="681.65625"
       y2="889.13525"
       gradientUnits="userSpaceOnUse" /></defs><g
     inkscape:label="Layer 1"
     inkscape:groupmode="layer"
     id="layer1"
     transform="translate(-1,-1.0000001)"><g
       id="g10"
       transform="translate(1,0.99999999)"
       inkscape:export-filename="g10.svg"
       inkscape:export-xdpi="96"
       inkscape:export-ydpi="96"><g
         id="g1"
         transform="matrix(1.4282,0,0,1.4282,-1.0835438e-4,-2.6743491)"
         style="fill:url(#linearGradient7)">&#10;	<path
   style="fill:url(#linearGradient8)"
   d="M 17.471,2.073 C 16.907,1.951 16.408,1.906 15.928,1.885 15.448,1.86 15,1.876 14.563,1.903 13.696,1.968 12.903,2.119 12.17,2.342 10.704,2.785 9.462,3.494 8.392,4.405 7.323,5.317 6.421,6.427 5.745,7.803 5.405,8.49 5.125,9.246 4.919,10.089 c -0.098,0.428 -0.188,0.864 -0.243,1.343 -0.045,0.366 -0.077,0.747 -0.078,1.164 -0.08,0.043 -0.16,0.092 -0.238,0.145 0,0 -2.711,1.528 -3.962,1.563 -1.251,0.031 0.88,0.755 0.521,1.249 -0.279,0.385 2.277,-1.363 3.817,-2.548 0.002,0 0.004,0 0.006,0.002 4.85,-3.407 10.186,-8.611 10.186,-8.611 0,0 -5.965,7.766 -9.078,8.753 0.098,0.006 0.196,0.011 0.292,0.016 0.481,0.025 0.928,0.008 1.365,-0.021 0.865,-0.065 1.658,-0.219 2.39,-0.44 1.468,-0.441 2.711,-1.149 3.786,-2.055 1.075,-0.907 1.977,-2.016 2.654,-3.39 0.341,-0.685 0.618,-1.443 0.825,-2.288 0.099,-0.427 0.188,-0.865 0.241,-1.345 0.06,-0.477 0.096,-0.976 0.068,-1.553 z"
   id="path1-1" />&#10;</g><text
         xml:space="preserve"
         transform="matrix(0.12526266,0,0,0.12526266,24.503247,-106.53341)"
         id="text9"
         style="font-style:normal;font-variant:normal;font-weight:normal;font-stretch:normal;font-size:64px;font-family:sans-serif;-inkscape-font-specification:sans-serif;text-align:start;white-space:pre;shape-inside:url(#rect9);display:inline;fill:url(#linearGradient10)"
         x="283.375"
         y="0"><tspan
           x="4.0859375"
           y="912.40086"
           id="tspan1">GREEN&#10;</tspan><tspan
           x="4.0859375"
           y="992.40086"
           id="tspan2">GLAMOUR</tspan></text></g></g></svg>
